<svg width="24" height="30" viewBox="0 0 24 30" fill="none" xmlns="http://www.w3.org/2000/svg">
<path fill-rule="evenodd" clip-rule="evenodd" d="M22 1.6H2C1.77909 1.6 1.6 1.77909 1.6 2V28C1.6 28.2209 1.77909 28.4 2 28.4H22C22.2209 28.4 22.4 28.2209 22.4 28V2C22.4 1.77909 22.2209 1.6 22 1.6ZM2 0C0.895431 0 0 0.89543 0 2V28C0 29.1046 0.89543 30 2 30H22C23.1046 30 24 29.1046 24 28V2C24 0.895431 23.1046 0 22 0H2Z" fill="black"/>
<path fill-rule="evenodd" clip-rule="evenodd" d="M18.5 9.29995H5V7.69995H18.5V9.29995Z" fill="black"/>
<path fill-rule="evenodd" clip-rule="evenodd" d="M18.5 14.8H5V13.2H18.5V14.8Z" fill="black"/>
<path fill-rule="evenodd" clip-rule="evenodd" d="M18.5 20.2999H5V18.7H18.5V20.2999Z" fill="black"/>
</svg>
